<svg width="14" height="14" viewBox="0 0 14 14" fill="none" xmlns="http://www.w3.org/2000/svg">
<path d="M6.41683 8.16675H7.5835V6.41675H9.3335V5.25008H7.5835V3.50008H6.41683V5.25008H4.66683V6.41675H6.41683V8.16675ZM7.00016 12.8334C5.43489 11.5015 4.26589 10.2644 3.49316 9.12225C2.72044 7.98008 2.33388 6.92269 2.3335 5.95008C2.3335 4.49175 2.80269 3.32994 3.74108 2.46466C4.67947 1.59939 5.76583 1.16675 7.00016 1.16675C8.2345 1.16675 9.32105 1.59939 10.2598 2.46466C11.1986 3.32994 11.6676 4.49175 11.6668 5.95008C11.6668 6.9223 11.2805 7.97969 10.5077 9.12225C9.73502 10.2648 8.56583 11.5019 7.00016 12.8334Z" fill="#0076BC"/>
</svg>
