<svg width="17" height="17" viewBox="0 0 17 17" fill="none" xmlns="http://www.w3.org/2000/svg">
<g clip-path="url(#clip0_390_49)">
<path fill-rule="evenodd" clip-rule="evenodd" d="M3.03571 2.73214H4.44793C4.658 3.77157 5.57721 4.55357 6.67857 4.55357H10.3214C11.4228 4.55357 12.342 3.77157 12.5533 2.73214H13.9643C14.2156 2.73214 14.4196 2.93614 14.4196 3.1875V15.0268C14.4196 15.1476 14.3717 15.2634 14.2863 15.3488C14.2009 15.4342 14.0851 15.4821 13.9643 15.4821H3.03571C2.91495 15.4821 2.79912 15.4342 2.71373 15.3488C2.62833 15.2634 2.58036 15.1476 2.58036 15.0268V3.1875C2.58036 2.93614 2.78436 2.73214 3.03571 2.73214ZM13.9643 1.21429H12.3359C11.9534 0.491786 11.1945 0 10.3214 0H6.67857C5.80429 0 5.04657 0.491786 4.66407 1.21429H3.03571C1.9465 1.21429 1.0625 2.09829 1.0625 3.1875V15.0268C1.0625 16.1172 1.9465 17 3.03571 17H13.9643C15.0547 17 15.9375 16.1172 15.9375 15.0268V3.1875C15.9375 2.09829 15.0547 1.21429 13.9643 1.21429ZM7.08171 6.96879C7.08171 6.72471 7.27964 6.52679 7.52372 6.52679H9.47629C9.72036 6.52679 9.91829 6.72471 9.91829 6.96879V8.59957H11.5491C11.7931 8.59957 11.9911 8.7975 11.9911 9.04157V10.9941C11.9911 11.1114 11.9445 11.2238 11.8616 11.3067C11.7787 11.3896 11.6663 11.4361 11.5491 11.4361H9.91829V13.0669C9.91829 13.1842 9.87172 13.2966 9.78883 13.3795C9.70594 13.4624 9.59351 13.5089 9.47629 13.5089H7.52372C7.40649 13.5089 7.29406 13.4624 7.21117 13.3795C7.12828 13.2966 7.08171 13.1842 7.08171 13.0669V11.4361H5.45093C5.39288 11.4361 5.33541 11.4247 5.28178 11.4025C5.22816 11.3803 5.17943 11.3477 5.13839 11.3067C5.09734 11.2656 5.06479 11.2169 5.04257 11.1633C5.02036 11.1097 5.00893 11.0522 5.00893 10.9941V9.04157C5.00893 8.7975 5.20686 8.59957 5.45093 8.59957H7.08171V6.96879Z" fill="#0076BC"/>
</g>
<defs>
<clipPath id="clip0_390_49">
<rect width="17" height="17" fill="white"/>
</clipPath>
</defs>
</svg>
